<svg id="Layer_1" data-name="Layer 1" xmlns="http://www.w3.org/2000/svg" width="113.47" height="108.11" viewBox="0 0 113.47 108.11">
  <defs>
    <style>
      .cls-1 {
        fill: #4a90e2;
      }

      .cls-2 {
        isolation: isolate;
      }

      .cls-3 {
        fill: #fff;
      }
    </style>
  </defs>
  <title>comming-soon</title>
  <g>
    <path id="Rectangle" class="cls-1" d="M56.34,0h22l69.47,66v20l-.05,22.06L34.34,0Z" transform="translate(-34.34)"/>
    <g class="cls-2">
      <path class="cls-3" d="M72.38,24.46A15.83,15.83,0,0,1,70,22.6c-2.23-2.22-1.55-4,1-6.49,2.74-2.73,4.35-3.11,6.49-1a14.14,14.14,0,0,1,1.83,2.39l-1.21,1.13a23.87,23.87,0,0,0-1.7-2c-1.11-1.11-1.86-1.07-3.9,1s-2.19,2.69-.94,3.94a22.43,22.43,0,0,0,2,1.67Z" transform="translate(-34.34)"/>
      <path class="cls-3" d="M80.5,27.49c-1.63,1.64-3.38,2.2-5.22.35s-1.29-3.59.35-5.23,3.36-2.17,5.2-.32S82.14,25.86,80.5,27.49Zm-1.44-1.44c1-1,1.35-1.77.56-2.55s-1.52-.47-2.55.56-1.37,1.79-.59,2.57S78,27.08,79.06,26.05Z" transform="translate(-34.34)"/>
      <path class="cls-3" d="M78.88,31.2l5.3-5.31,1.41,1.41-.29.3a4.61,4.61,0,0,1,1.67.83,2.35,2.35,0,0,1,.83,1.82,6.79,6.79,0,0,1,2.28,1.28c1.44,1.45,1,2.72-.69,4.43l-2.87,2.87L85.1,37.41l2.83-2.83c.8-.81,1.22-1.43.58-2.07a5.08,5.08,0,0,0-1.19-.78s-.75.83-1.16,1.25l-2.75,2.74L82,34.3l2.72-2.72c1-1,1.35-1.52.69-2.18a4.2,4.2,0,0,0-1.13-.75l-4,4Z" transform="translate(-34.34)"/>
      <path class="cls-3" d="M93.08,34.79l1.42,1.42-5.3,5.31-1.42-1.43Zm2.13-2.12,1.42,1.42-1.45,1.44-1.42-1.42Z" transform="translate(-34.34)"/>
      <path class="cls-3" d="M90.52,42.83l5.3-5.3,1.41,1.41-.3.3a4.41,4.41,0,0,1,1.75.9c1.49,1.48.94,2.8-.69,4.42l-2.87,2.87L93.7,46l2.83-2.83c.81-.8,1.22-1.43.53-2.12a4,4,0,0,0-1.16-.77l-4,4Z" transform="translate(-34.34)"/>
      <path class="cls-3" d="M95.15,49.4a2.18,2.18,0,0,1,2-.5,1.39,1.39,0,0,1,.41-1.2,3.48,3.48,0,0,1,1.26-.44,2.44,2.44,0,0,1,.86-2.3c1.37-1.37,2.87-.89,4.11.35a8.91,8.91,0,0,1,.93,1.21l1.76,1.66-1.13,1.13-.74-.86a2,2,0,0,1-.48,1c-1.49,1.48-2.66,1.08-4.11-.37a3.92,3.92,0,0,1-.39-.48,2.38,2.38,0,0,0-.52.31c-.28.27-.21.46.68,1.38,1.79,1.81,1.9,2.72.71,3.91s-2.93.63-4.3-.73C94.69,51.88,94,50.58,95.15,49.4Zm2.44.93a1.09,1.09,0,0,0-.89.32c-.31.31-.08.83.71,1.62s1.22.92,1.6.54.24-.66-.54-1.45C98.17,51.06,97.59,50.33,97.59,50.33ZM102.76,48a1,1,0,0,0,0-1.58,1,1,0,0,0-1.59,0A1.15,1.15,0,0,0,102.76,48Z" transform="translate(-34.34)"/>
      <path class="cls-3" d="M112.16,56.52S111,55,110.4,54.42s-.88-.6-1.16-.31-.1.49.7,1.65c1,1.45,1.08,2.25,0,3.32-1.24,1.24-2.53.91-3.85-.41a18.56,18.56,0,0,1-1.78-2.29l1.23-1.15s1.14,1.48,1.68,2,1,.73,1.27.45.23-.45-.59-1.59c-1-1.34-1.28-2.22-.12-3.38s2.67-.8,3.78.31a20,20,0,0,1,1.79,2.33Z" transform="translate(-34.34)"/>
      <path class="cls-3" d="M116.65,63.64c-1.63,1.63-3.38,2.19-5.23.35s-1.28-3.59.35-5.23,3.36-2.17,5.21-.33S118.28,62,116.65,63.64Zm-1.44-1.44c1-1,1.34-1.77.56-2.56s-1.53-.47-2.56.56-1.36,1.8-.58,2.58S114.18,63.23,115.21,62.2Z" transform="translate(-34.34)"/>
      <path class="cls-3" d="M122.29,69.28c-1.63,1.64-3.38,2.2-5.23.35s-1.28-3.59.35-5.23,3.37-2.17,5.21-.32S123.93,67.65,122.29,69.28Zm-1.44-1.44c1-1,1.35-1.77.56-2.56s-1.53-.46-2.55.57-1.37,1.79-.59,2.57S119.82,68.87,120.85,67.84Z" transform="translate(-34.34)"/>
      <path class="cls-3" d="M120.67,73l5.3-5.31,1.41,1.41-.29.3a4.64,4.64,0,0,1,1.75.9c1.48,1.49.93,2.8-.69,4.42l-2.88,2.88-1.42-1.42,2.83-2.84c.81-.8,1.22-1.43.53-2.12a4.13,4.13,0,0,0-1.15-.77l-4,4Z" transform="translate(-34.34)"/>
    </g>
  </g>
</svg>
