<svg xmlns="http://www.w3.org/2000/svg" width="23" height="23" viewBox="-3 -6 23 23" fill="#fff"><path d="M12.27-2.705H4.73A4.44 4.44 0 0 0 .293 1.729v7.54a4.44 4.44 0 0 0 4.436 4.434h7.543a4.44 4.44 0 0 0 4.435-4.434V1.73a4.44 4.44 0 0 0-4.436-4.434zm3.1 11.976c-.002 1.715-1.393 3.105-3.1 3.107H4.73c-1.716-.002-3.106-1.393-3.108-3.107V1.73C1.623.013 3.014-1.377 4.73-1.38h7.543a3.11 3.11 0 0 1 3.109 3.108V9.27zm-3.198-4.343a3.65 3.65 0 0 0-1.037-2.063c-.824-.823-2-1.208-3.143-1.038a3.65 3.65 0 0 0-2.416 1.448c-.584.782-.83 1.766-.683 2.73.143.973.657 1.83 1.447 2.416a3.65 3.65 0 0 0 2.732.686 3.65 3.65 0 0 0 2.416-1.448c.586-.8.828-1.76.684-2.732zM8.877 7.795c-.622.093-1.243-.063-1.748-.438s-.834-.923-.926-1.544a2.34 2.34 0 0 1 .439-1.748 2.34 2.34 0 0 1 1.89-.952 2.34 2.34 0 0 1 2.328 2.008 2.35 2.35 0 0 1-1.984 2.674zm4.24-6.912c-.26-.257-.68-.257-.938 0s-.257.678 0 .938c.263.258.685.254.942-.008a.67.67 0 0 0 .191-.461.67.67 0 0 0-.195-.469z"/></svg>