<svg xmlns="http://www.w3.org/2000/svg" width="23" height="23" viewBox="-2 -7 23 23"><path fill="#fff" d="M16.957 1.18c0 5.08-3.865 10.933-10.93 10.933a10.85 10.85 0 0 1-5.899-1.726c.31.036.605.047.928.047a7.68 7.68 0 0 0 4.768-1.641 3.85 3.85 0 0 1-3.591-2.665c.24.035.476.06.725.06a4.07 4.07 0 0 0 1.012-.131 3.84 3.84 0 0 1-3.08-3.771V2.24c.5.285 1.105.463 1.735.487a3.84 3.84 0 0 1-1.189-5.138A10.93 10.93 0 0 0 9.356 1.61c-.06-.3-.09-.585-.093-.88a3.84 3.84 0 0 1 3.839-3.842h.002A3.84 3.84 0 0 1 15.913-1.9c.86-.166 1.686-.48 2.438-.928A3.84 3.84 0 0 1 16.663-.71a7.65 7.65 0 0 0 2.212-.595A8.21 8.21 0 0 1 16.947.681a8.34 8.34 0 0 1 .01.5"/></svg>